# xmcd
#
# Track frame offsets:
# 150
# 11691
# 23874
# 46467
# 68251
# 88563
# 110928
# 133259
# 155629
# 177837
# 199841
# 220054
# 240924
# 262081
# 283028
# 304299
# 326827
# 347149
#
# Disc length: 4677 seconds
#
#
# Revision: 0
# Processed by: cddbd v1.5.2PL0 Copyright (c) Steve Scherf et al.
# Submitted via: FreeRIP 2.96 
#
DISCID=0e124312
DTITLE=Grisham, John - The Appeal CD5v5
DYEAR=2008
DGENRE=Speech
TTITLE0=71 The Appeal
TTITLE1=72 The Appeal
TTITLE2=73 The Appeal
TTITLE3=74 The Appeal
TTITLE4=75 The Appeal
TTITLE5=76 The Appeal
TTITLE6=77 The Appeal
TTITLE7=78 The Appeal
TTITLE8=79 The Appeal
TTITLE9=80 The Appeal
TTITLE10=81 The Appeal
TTITLE11=82 The Appeal
TTITLE12=83 The Appeal
TTITLE13=84 The Appeal
TTITLE14=85 The Appeal
TTITLE15=86 The Appeal
TTITLE16=87 The Appeal
TTITLE17=88 The Appeal
EXTD=read by Michael Beck
EXTT0=
EXTT1=
EXTT2=
EXTT3=
EXTT4=
EXTT5=
EXTT6=
EXTT7=
EXTT8=
EXTT9=
EXTT10=
EXTT11=
EXTT12=
EXTT13=
EXTT14=
EXTT15=
EXTT16=
EXTT17=
PLAYORDER=
